HIERARCHY
ROOT hip
{
  OFFSET 0 0 0
  CHANNELS 6 Xposition Yposition Zposition Zrotation Yrotation Xrotation
  JOINT abdomen
  {
    OFFSET 0 20.6881 -0.73152
    CHANNELS 3 Zrotation Xrotation Yrotation
    JOINT chest
    {
      OFFSET 0 11.7043 -0.48768
      CHANNELS 3 Zrotation Xrotation Yrotation
      JOINT neck
      {
        OFFSET 0 22.1894 -2.19456
        CHANNELS 3 Zrotation Xrotation Yrotation
        JOINT head
        {
          OFFSET -0.24384 7.07133 1.2192
          CHANNELS 3 Zrotation Xrotation Yrotation
          JOINT leftEye
          {
            OFFSET 4.14528 8.04674 8.04672
            CHANNELS 3 Zrotation Xrotation Yrotation
            End Site
            {
              OFFSET 1 0 0
            }
          }
          JOINT rightEye
          {
            OFFSET -3.6576 8.04674 8.04672
            CHANNELS 3 Zrotation Xrotation Yrotation
            End Site
            {
              OFFSET 1 0 0
            }
          }
        }
      }
      JOINT rCollar
      {
        OFFSET -2.68224 19.2634 -4.8768
        CHANNELS 3 Zrotation Xrotation Yrotation
        JOINT rShldr
        {
          OFFSET -8.77824 -1.95073 1.46304
          CHANNELS 3 Zrotation Xrotation Yrotation
          JOINT rForeArm
          {
            OFFSET -28.1742 -1.7115 0.48768
            CHANNELS 3 Zrotation Xrotation Yrotation
            JOINT rHand
            {
              OFFSET -22.5879 0.773209 7.07136
              CHANNELS 3 Zrotation Xrotation Yrotation
              JOINT rThumb1
              {
                OFFSET -1.2192 -0.487915 3.41376
                CHANNELS 3 Zrotation Xrotation Yrotation
                JOINT rThumb2
                {
                  OFFSET -3.37035 -0.52449 3.41376
                  CHANNELS 3 Zrotation Xrotation Yrotation
                  End Site
                  {
                    OFFSET -1.78271 -1.18214 1.43049
                  }
                }
              }
              JOINT rIndex1
              {
                OFFSET -7.75947 0.938293 5.60832
                CHANNELS 3 Zrotation Xrotation Yrotation
                JOINT rIndex2
                {
                  OFFSET -2.54057 -0.884171 1.56538
                  CHANNELS 3 Zrotation Xrotation Yrotation
                  End Site
                  {
                    OFFSET -1.62519 -0.234802 1.16502
                  }
                }
              }
              JOINT rMid1
              {
                OFFSET -8.24714 1.18213 3.41376
                CHANNELS 3 Zrotation Xrotation Yrotation
                JOINT rMid2
                {
                  OFFSET -3.10165 -0.590103 1.0647
                  CHANNELS 3 Zrotation Xrotation Yrotation
                  End Site
                  {
                    OFFSET -2.48547 -0.328903 0.83742
                  }
                }
              }
              JOINT rRing1
              {
                OFFSET -8.82822 0.546677 1.51678
                CHANNELS 3 Zrotation Xrotation Yrotation
                JOINT rRing2
                {
                  OFFSET -2.60934 -0.819778 -0.0198488
                  CHANNELS 3 Zrotation Xrotation Yrotation
                  End Site
                  {
                    OFFSET -2.33842 -0.294052 0.168128
                  }
                }
              }
              JOINT rPinky1
              {
                OFFSET -8.27202 -0.0477905 -0.4584
                CHANNELS 3 Zrotation Xrotation Yrotation
                JOINT rPinky2
                {
                  OFFSET -1.82734 -0.647385 -0.700984
                  CHANNELS 3 Zrotation Xrotation Yrotation
                  End Site
                  {
                    OFFSET -1.69225 -0.51767 -0.607171
                  }
                }
              }
            }
          }
        }
      }
      JOINT lCollar
      {
        OFFSET 2.68224 19.2634 -4.8768
        CHANNELS 3 Zrotation Xrotation Yrotation
        JOINT lShldr
        {
          OFFSET 8.77824 -1.95073 1.46304
          CHANNELS 3 Zrotation Xrotation Yrotation
          JOINT lForeArm
          {
            OFFSET 28.1742 -1.7115 0.48768
            CHANNELS 3 Zrotation Xrotation Yrotation
            JOINT lHand
            {
              OFFSET 22.5879 0.773209 7.07136
              CHANNELS 3 Zrotation Xrotation Yrotation
              JOINT lThumb1
              {
                OFFSET 1.2192 -0.487915 3.41376
                CHANNELS 3 Zrotation Xrotation Yrotation
                JOINT lThumb2
                {
                  OFFSET 3.37035 -0.52449 3.41376
                  CHANNELS 3 Zrotation Xrotation Yrotation
                  End Site
                  {
                    OFFSET 1.78271 -1.18214 1.43049
                  }
                }
              }
              JOINT lIndex1
              {
                OFFSET 7.75947 0.938293 5.60832
                CHANNELS 3 Zrotation Xrotation Yrotation
                JOINT lIndex2
                {
                  OFFSET 2.54057 -0.884171 1.56538
                  CHANNELS 3 Zrotation Xrotation Yrotation
                  End Site
                  {
                    OFFSET 1.62519 -0.234802 1.16502
                  }
                }
              }
              JOINT lMid1
              {
                OFFSET 8.24714 1.18213 3.41376
                CHANNELS 3 Zrotation Xrotation Yrotation
                JOINT lMid2
                {
                  OFFSET 3.10165 -0.590103 1.0647
                  CHANNELS 3 Zrotation Xrotation Yrotation
                  End Site
                  {
                    OFFSET 2.48547 -0.328903 0.83742
                  }
                }
              }
              JOINT lRing1
              {
                OFFSET 8.82822 0.546677 1.51678
                CHANNELS 3 Zrotation Xrotation Yrotation
                JOINT lRing2
                {
                  OFFSET 2.60934 -0.819778 -0.0198488
                  CHANNELS 3 Zrotation Xrotation Yrotation
                  End Site
                  {
                    OFFSET 2.33842 -0.294052 0.168128
                  }
                }
              }
              JOINT lPinky1
              {
                OFFSET 8.27202 -0.0477905 -0.4584
                CHANNELS 3 Zrotation Xrotation Yrotation
                JOINT lPinky2
                {
                  OFFSET 1.82734 -0.647385 -0.700984
                  CHANNELS 3 Zrotation Xrotation Yrotation
                  End Site
                  {
                    OFFSET 1.69225 -0.51767 -0.607171
                  }
                }
              }
            }
          }
        }
      }
    }
  }
  JOINT rButtock
  {
    OFFSET -8.77824 4.35084 1.2192
    CHANNELS 3 Zrotation Xrotation Yrotation
    JOINT rThigh
    {
      OFFSET 0 -1.70687 -2.19456
      CHANNELS 3 Zrotation Xrotation Yrotation
      JOINT rShin
      {
        OFFSET 0 -36.8199 0.73152
        CHANNELS 3 Zrotation Xrotation Yrotation
        JOINT rFoot
        {
          OFFSET 0.73152 -45.1104 -5.12064
          CHANNELS 3 Zrotation Xrotation Yrotation
          End Site
          {
            OFFSET -1.1221 -3.69964 12.103
          }
        }
      }
    }
  }
  JOINT lButtock
  {
    OFFSET 8.77824 4.35084 1.2192
    CHANNELS 3 Zrotation Xrotation Yrotation
    JOINT lThigh
    {
      OFFSET 0 -1.70687 -2.19456
      CHANNELS 3 Zrotation Xrotation Yrotation
      JOINT lShin
      {
        OFFSET 0 -36.8199 0.73152
        CHANNELS 3 Zrotation Xrotation Yrotation
        JOINT lFoot
        {
          OFFSET -0.73152 -45.1104 -5.12064
          CHANNELS 3 Zrotation Xrotation Yrotation
          End Site
          {
            OFFSET 1.1221 -3.69964 12.103
          }
        }
      }
    }
  }
}
MOTION
Frames:	7
Frame Time:	0.00833333
36.3315 85.5069 -174.399 0.0 0.0 0.0 2.23594 -0.000458364 0.0604476 0.615858 0.00897684 0.106601 9.45808e-14 -7.95139e-16 -2.98177e-16 2.84014e-13 3.18055e-15 -9.97029e-16 -0.0 0.0 0.0 -0.0 0.0 0.0 4.75584e-14 -1.86361e-16 4.96962e-17 9.94651e-13 -3.59055e-15 1.19271e-15 1.71061e-11 -5.24016e-12 -2.19458e-13 1.95613e-10 4.40214e-12 -3.14875e-13 4.61458e-10 -1.82505e-12 -1.19589e-12 7.96928e-10 -3.15511e-12 -2.10155e-12 4.61466e-10 -1.82127e-12 -1.21179e-12 7.73091 5.47488 0.417314 4.6146e-10 -1.82425e-12 -1.19907e-12 2.90554 0.965183 0.102902 4.61472e-10 -1.82425e-12 -1.20702e-12 10.2786 0.731801 0.0259123 4.61458e-10 -1.82643e-12 -1.20543e-12 2.22167 -0.733487 -0.20892 4.75632e-14 -1.85196e-16 -1.98785e-16 9.88216e-13 -3.88872e-15 -1.39149e-15 1.70784e-11 4.98393e-12 -2.16278e-13 1.95637e-10 -5.83731e-12 -3.14875e-13 4.61452e-10 -1.85248e-12 -1.20543e-12 7.96911e-10 -3.19646e-12 -2.07531e-12 4.61443e-10 -1.8487e-12 -1.18635e-12 -7.73091 5.47488 -0.417314 4.61449e-10 -1.85188e-12 -1.19907e-12 -2.90554 0.965183 -0.102902 4.61438e-10 -1.85188e-12 -1.19271e-12 -10.2786 0.731801 -0.0259123 4.61453e-10 -1.85228e-12 -1.19271e-12 -2.22167 -0.733487 0.20892 -2.03217e-16 0.0 -3.88251e-19 2.21094 -7.80166 -0.224195 0.00522516 8.55962 0.13591 -0.548036 -0.766554 0.0461516 2.03217e-16 0.0 3.88251e-19 1.18446 -1.92859 -0.00254996 0.00908719 -2.07858 0.0749473 0.513196 3.99847 -0.140489
36.8274 85.0721 -175.606 1.2454 0.2988 3.7449 1.77917 -2.43359 0.524397 0.337943 1.01733 0.256422 0.0354677 4.95178 -0.465086 1.44726 -7.92196 -0.568634 -0.0 0.0 0.0 -0.0 0.0 0.0 3.37818e-14 4.68287e-14 6.32772e-15 22.0707 3.6485 -2.97028 -2.77925 -1.06976 4.52884 0.0407913 4.48263 0.623048 4.97036e-10 8.90322e-11 -2.58992e-10 8.55114e-10 1.55576e-10 -4.49469e-10 4.97042e-10 8.90395e-11 -2.59007e-10 7.73091 5.47488 0.417314 4.97035e-10 8.90381e-11 -2.58996e-10 2.90554 0.965183 0.102902 4.97048e-10 8.90386e-11 -2.59e-10 10.2786 0.731801 0.0259123 4.97038e-10 8.90368e-11 -2.58998e-10 2.22167 -0.733487 -0.20892 3.37552e-14 4.68299e-14 6.12466e-15 -20.9341 9.38183 -0.0023633 2.96914 -1.16975 -4.81411 -0.00862951 -2.07227 0.290562 1.25741e-10 5.18841e-11 3.35086e-10 2.15658e-10 8.85415e-11 5.78074e-10 1.25735e-10 5.18867e-11 3.35099e-10 -7.73091 5.47488 -0.417314 1.2574e-10 5.18857e-11 3.35091e-10 -2.90554 0.965183 -0.102902 1.25731e-10 5.18846e-11 3.35095e-10 -10.2786 0.731801 -0.0259123 1.25743e-10 5.18843e-11 3.35092e-10 -2.22167 -0.733487 0.20892 -2.03217e-16 0.0 -3.88251e-19 2.31312 -6.7596 2.64645 0.00663704 8.76581 0.149081 -0.96592 -5.77947 -5.10754 2.03217e-16 0.0 3.88251e-19 2.0429 -1.57468 -0.302957 0.00640356 -1.76809 0.0421508 0.448261 2.80188 -1.47663
36.8176 85.0752 -175.607 1.1531 0.3667 3.749 1.34151 -5.00737 1.01313 0.0404821 2.0838 0.413543 0.158009 10.1911 -0.975898 2.80514 -16.2949 -1.22052 -0.0 0.0 0.0 -0.0 0.0 0.0 1.93595e-14 9.75582e-14 1.3213e-14 45.8138 7.48879 -6.14717 -5.53481 -2.17884 9.32277 -0.0233603 9.22187 1.29482 5.32404e-10 1.86252e-10 -5.40075e-10 9.12612e-10 3.25429e-10 -9.37158e-10 5.32408e-10 1.86264e-10 -5.4009e-10 7.73091 5.47488 0.417314 5.32399e-10 1.86264e-10 -5.40081e-10 2.90554 0.965183 0.102902 5.32412e-10 1.86265e-10 -5.40081e-10 10.2786 0.731801 0.0259123 5.32408e-10 1.86263e-10 -5.40078e-10 2.22167 -0.733487 -0.20892 1.92992e-14 9.75595e-14 1.30608e-14 -43.0715 19.3102 -0.00195943 5.89988 -2.38158 -9.91767 0.00528277 -4.28788 0.602528 -2.33182e-10 1.02217e-10 6.9616e-10 -4.05806e-10 1.74262e-10 1.20097e-09 -2.33187e-10 1.02218e-10 6.96166e-10 -7.73091 5.47488 -0.417314 -2.33182e-10 1.0222e-10 6.96163e-10 -2.90554 0.965183 -0.102902 -2.33189e-10 1.02218e-10 6.96165e-10 -10.2786 0.731801 -0.0259123 -2.33181e-10 1.02217e-10 6.96158e-10 -2.22167 -0.733487 0.20892 -2.03217e-16 0.0 -3.88251e-19 2.30945 -5.64721 5.6724 0.00801095 8.98188 0.16297 -2.40013 -10.9418 -10.7002 2.03217e-16 0.0 3.88251e-19 2.95629 -1.20171 -0.620008 0.00393142 -1.44025 0.00753422 0.318992 1.53409 -2.88332
36.8112 85.0762 -175.605 1.1175 0.367 3.7354 0.984685 -7.29781 1.46273 -0.233729 3.03392 0.556724 0.354641 14.8514 -1.4381 3.83301 -23.7561 -1.84609 -0.0 0.0 0.0 -0.0 0.0 0.0 6.22864e-15 1.40859e-13 1.88838e-14 67.3592 10.8268 -9.05526 -7.83504 -3.12918 13.6048 -0.177051 13.4414 1.91593 5.68193e-10 2.70747e-10 -7.74583e-10 9.71485e-10 4.73038e-10 -1.3442e-09 5.68195e-10 2.70761e-10 -7.74597e-10 7.73091 5.47488 0.417314 5.68185e-10 2.70763e-10 -7.74589e-10 2.90554 0.965183 0.102902 5.68198e-10 2.70764e-10 -7.74587e-10 10.2786 0.731801 0.0259123 5.68199e-10 2.70763e-10 -7.74582e-10 2.22167 -0.733487 -0.20892 6.13912e-15 1.4086e-13 1.87716e-14 -62.7997 28.1455 -0.00793313 8.32376 -3.4103 -14.4655 0.0374806 -6.21616 0.876269 -5.45679e-10 1.59357e-10 1.00767e-09 -9.46848e-10 2.72017e-10 1.73837e-09 -5.45682e-10 1.59357e-10 1.00767e-09 -7.73091 5.47488 -0.417314 -5.45678e-10 1.59361e-10 1.00767e-09 -2.90554 0.965183 -0.102902 -5.45683e-10 1.59358e-10 1.00767e-09 -10.2786 0.731801 -0.0259123 -5.45678e-10 1.59357e-10 1.00766e-09 -2.22167 -0.733487 0.20892 -2.03217e-16 0.0 -3.88251e-19 2.20329 -4.64717 8.35604 0.00917269 9.17819 0.175471 -4.55469 -15.2945 -15.9146 2.03217e-16 0.0 3.88251e-19 3.7709 -0.866825 -0.903535 0.00210279 -1.1471 -0.0234085 0.151128 0.410384 -4.14441
36.8066 85.0722 -175.612 1.0787 0.4001 3.7604 0.747349 -8.88172 1.80485 -0.438862 3.69325 0.66446 0.551828 18.0677 -1.73624 4.42732 -28.9481 -2.2656 -0.0 0.0 0.0 -0.0 0.0 0.0 -3.67355e-15 1.65586e-13 2.15184e-14 82.5895 13.0228 -11.1511 -9.3502 -3.75912 16.5897 -0.340283 16.368 2.36574 6.05035e-10 3.23427e-10 -8.92651e-10 1.03379e-09 5.65035e-10 -1.54964e-09 6.05035e-10 3.23443e-10 -8.92664e-10 7.73091 5.47488 0.417314 6.05025e-10 3.23445e-10 -8.92658e-10 2.90554 0.965183 0.102902 6.05037e-10 3.23447e-10 -8.92654e-10 10.2786 0.731801 0.0259123 6.0504e-10 3.23446e-10 -8.92648e-10 2.22167 -0.733487 -0.20892 -3.78113e-15 1.65588e-13 2.1419e-14 -76.5014 34.2484 -0.0317102 9.89333 -4.07679 -17.6016 0.0681302 -7.42679 1.04971 -7.4211e-10 2.33516e-10 1.19527e-09 -1.28683e-09 3.99863e-10 2.06203e-09 -7.42112e-10 2.33516e-10 1.19526e-09 -7.73091 5.47488 -0.417314 -7.42109e-10 2.3352e-10 1.19527e-09 -2.90554 0.965183 -0.102902 -7.42113e-10 2.33516e-10 1.19526e-09 -10.2786 0.731801 -0.0259123 -7.42108e-10 2.33516e-10 1.19525e-09 -2.22167 -0.733487 0.20892 -2.03217e-16 0.0 -3.88251e-19 2.06205 -3.94052 10.2035 0.0100013 9.32508 0.184468 -6.54393 -18.1077 -19.7121 2.03217e-16 0.0 3.88251e-19 4.33076 -0.627172 -1.10338 0.00113482 -0.940667 -0.0451872 0.00457701 -0.356216 -5.04288
36.808 85.0742 -175.591 1.0394 0.4955 3.747 0.631418 -9.46959 1.99533 -0.544528 3.94736 0.724096 0.662101 19.2632 -1.76634 4.63591 -30.9825 -2.26648 -0.0 0.0 0.0 -0.0 0.0 0.0 -1.0112e-14 1.64736e-13 2.09485e-14 88.6118 13.683 -12.0105 -9.91382 -3.99057 17.7385 -0.41628 17.4915 2.54368 6.71729e-10 3.38393e-10 -8.25664e-10 1.15037e-09 5.90973e-10 -1.43506e-09 6.71731e-10 3.38404e-10 -8.25675e-10 7.73091 5.47488 0.417314 6.71721e-10 3.38408e-10 -8.25669e-10 2.90554 0.965183 0.102902 6.71733e-10 3.38408e-10 -8.25665e-10 10.2786 0.731801 0.0259123 6.71732e-10 3.38408e-10 -8.25659e-10 2.22167 -0.733487 -0.20892 -1.02245e-14 1.64737e-13 2.0818e-14 -81.7537 36.5131 -0.0923093 10.439 -4.29907 -18.7386 0.0752072 -7.58937 1.0733 -7.84976e-10 3.57538e-10 1.22859e-09 -1.36085e-09 6.14933e-10 2.11961e-09 -7.84979e-10 3.57536e-10 1.22859e-09 -7.73091 5.47488 -0.417314 -7.84975e-10 3.57539e-10 1.22859e-09 -2.90554 0.965183 -0.102902 -7.84978e-10 3.57535e-10 1.22859e-09 -10.2786 0.731801 -0.0259123 -7.84973e-10 3.57536e-10 1.22858e-09 -2.22167 -0.733487 0.20892 -2.03217e-16 0.0 -3.88251e-19 1.96057 -3.63955 10.8818 0.0104731 9.40688 0.188641 -7.40335 -19.0966 -21.212 2.03217e-16 0.0 3.88251e-19 4.52313 -0.517299 -1.18787 0.00106669 -0.855359 -0.0541749 -0.0599092 -0.627183 -5.43162
36.8159 85.0784 -175.571 1.0419 0.5658 3.709 0.592609 -9.34681 2.07507 -0.577762 3.91195 0.749163 0.693528 19.0157 -1.5977 4.61133 -30.7618 -1.94009 -0.0 0.0 0.0 -0.0 0.0 0.0 -1.40259e-14 1.45595e-13 1.80397e-14 87.9726 13.2702 -11.9614 -9.83204 -3.95257 17.5732 -0.405601 17.3283 2.51779 7.58397e-10 3.26093e-10 -6.27544e-10 1.30335e-09 5.69165e-10 -1.09369e-09 7.584e-10 3.26098e-10 -6.27552e-10 7.73091 5.47488 0.417314 7.58392e-10 3.26102e-10 -6.27545e-10 2.90554 0.965183 0.102902 7.58402e-10 3.26101e-10 -6.27544e-10 10.2786 0.731801 0.0259123 7.58395e-10 3.26102e-10 -6.27537e-10 2.22167 -0.733487 -0.20892 -1.41341e-14 1.45597e-13 1.78471e-14 -80.9758 36.0369 -0.175954 10.2911 -4.22197 -18.4444 0.0631105 -7.00548 0.989712 -7.17727e-10 5.15936e-10 1.15081e-09 -1.24414e-09 8.90159e-10 1.98556e-09 -7.17733e-10 5.15933e-10 1.15081e-09 -7.73091 5.47488 -0.417314 -7.17727e-10 5.15932e-10 1.1508e-09 -2.90554 0.965183 -0.102902 -7.17731e-10 5.1593e-10 1.1508e-09 -10.2786 0.731801 -0.0259123 -7.17724e-10 5.15932e-10 1.15079e-09 -2.22167 -0.733487 0.20892 -2.03217e-16 0.0 -3.88251e-19 1.91067 -3.62676 10.7262 0.0107118 9.442 0.189359 -7.2511 -18.8827 -20.9902 2.03217e-16 0.0 3.88251e-19 4.45252 -0.500282 -1.18987 0.00156062 -0.85658 -0.0540258 -0.0535648 -0.545142 -5.45582
